<svg xmlns="http://www.w3.org/2000/svg" viewBox="0 0 655 723.7"><defs><clipPath id="clip-path"><path d="M577.5 396.2c0 138.07-111.93 250-250 250s-250-111.93-250-250 111.93-250 250-250 250 111.93 250 250Z" style="fill:none"/></clipPath><style>.cls-3{fill:#f2f2f2}.cls-4{fill:#fff}.cls-5{fill:#2d2d2d}.cls-6{clip-path:url(#clip-path)}.cls-10{fill:#bf5e56}.cls-11{fill:#89433f}</style></defs><g id="Layer_2" data-name="Layer 2"><g id="Bordered"><g id="Logo"><g id="Dark_Border" data-name="Dark Border"><circle cx="327.5" cy="396.2" r="317.5" style="fill:#404040"/><path class="cls-3" d="M327.5 78.7C502.85 78.7 645 220.85 645 396.2S502.85 713.7 327.5 713.7 10 571.55 10 396.2 152.15 78.7 327.5 78.7m0-10A327.58 327.58 0 0 0 200 698 327.58 327.58 0 0 0 455 94.44 325.44 325.44 0 0 0 327.5 68.7Z"/></g><path class="cls-4" d="M71.18 264.67a18.35 18.35 0 0 1 6 4.07 16.23 16.23 0 0 1 3.54 5.61 16.62 16.62 0 0 1 1 6.6 20.06 20.06 0 0 1-1.71 7 19.73 19.73 0 0 1-4 6 16.49 16.49 0 0 1-5.49 3.75 16.21 16.21 0 0 1-6.53 1.2 19.42 19.42 0 0 1-13-5.69 15.61 15.61 0 0 1-3.44-5.56 16.66 16.66 0 0 1-.87-6.53 21.65 21.65 0 0 1 5.7-13 16.54 16.54 0 0 1 5.4-3.81 15.44 15.44 0 0 1 6.41-1.24 17.83 17.83 0 0 1 6.99 1.6Zm-3.39 7.74a11.11 11.11 0 0 0-3.91-1 9.61 9.61 0 0 0-3.67.49 9 9 0 0 0-3.09 1.87A9.46 9.46 0 0 0 54.9 277a9 9 0 0 0 2 10.33 11.58 11.58 0 0 0 3.37 2.21 11.89 11.89 0 0 0 4 1 9.79 9.79 0 0 0 3.71-.47 8.71 8.71 0 0 0 3.1-1.85 9.76 9.76 0 0 0 3-6.93 8.92 8.92 0 0 0-.74-3.55 9.31 9.31 0 0 0-2.16-3.06 11.49 11.49 0 0 0-3.39-2.27ZM71.93 244.91l5.77 3.48 6.53-10.84 5.58 3.36-6.54 10.84 10.88 6.55-4 6.68-28-16.87 11.11-18.43 5.74 3.48ZM89.38 218.74l5.38 4.07 7.64-10.09 5.18 3.93-7.58 10.09 10.12 7.67-4.72 6.22-26-19.74 13-17.15 5.37 4.07ZM115.76 212.74l-4.45-4 7.87-8.69 4.45 4ZM151.43 190.1l-24.05-7.18-.11.09 14.38 15.82-5.71 5.11-21.78-24.38 6.71-6 24 7.17.1-.09-14.34-15.78 5.71-5.11 21.78 24.38ZM184.43 146.16a18.21 18.21 0 0 1 2.78 6.65 16.24 16.24 0 0 1-.08 6.63 16.48 16.48 0 0 1-2.78 6.06 20.71 20.71 0 0 1-11.86 7.81 16.6 16.6 0 0 1-6.65.15 16.18 16.18 0 0 1-6.12-2.54 19.39 19.39 0 0 1-7.8-11.84 15.63 15.63 0 0 1 .15-6.54 16.66 16.66 0 0 1 2.82-5.95 20.48 20.48 0 0 1 5.26-4.9 20.71 20.71 0 0 1 6.6-2.91 16.41 16.41 0 0 1 6.6-.25 15.41 15.41 0 0 1 6.06 2.44 17.94 17.94 0 0 1 5.02 5.19Zm-7.06 4.64a11.06 11.06 0 0 0-2.76-2.93 9.4 9.4 0 0 0-3.34-1.59 8.92 8.92 0 0 0-3.61-.11 9.42 9.42 0 0 0-3.6 1.46 9 9 0 0 0-3.93 9.77 11.62 11.62 0 0 0 1.63 3.69 11.74 11.74 0 0 0 2.82 3 9.81 9.81 0 0 0 3.37 1.63 8.89 8.89 0 0 0 3.6.14 9.15 9.15 0 0 0 3.58-1.45 9.27 9.27 0 0 0 2.75-2.72 8.92 8.92 0 0 0 1.31-3.38 9.5 9.5 0 0 0-.15-3.74 11.57 11.57 0 0 0-1.67-3.77ZM226.78 144.29l-9.29-21.18-.13.06 1.71 24.58L214 150l-17-17.72-.13.05 9.63 21-6.78 3-13.37-29.83 10.25-4.6 15.4 16.18.16-.08-2.07-22 10.42-4.67 13.37 29.83ZM242.63 138.72l-9.77-31.19 7.58-2.38 9.76 31.2ZM279.3 129.41l-17.14-18.35h-.13l4.42 20.94-7.52 1.52-6.48-32 8.83-1.78L278.36 118h.13l-4.4-20.87 7.51-1.52 6.48 32ZM319.32 125.18l-2.93-6.25-12.62.78-2 6.55-8.57.52 11.69-33.46 7.65-.47 15.55 31.79ZM309.1 101.8l-3.46 11.45 8.2-.5ZM333.39 125.12l1.74-32.64 7.93.42-1.37 25.77 12.63.68-.37 6.87Z"/><path class="cls-3" d="M74.07 565.25A17.28 17.28 0 0 1 69 559.8a18.8 18.8 0 0 1-2.61-6.58 16 16 0 0 1 2.77-12.56 19 19 0 0 1 12-7.39 15.72 15.72 0 0 1 6.57.34 16.55 16.55 0 0 1 5.87 3 19.93 19.93 0 0 1 4.67 5.28 19.58 19.58 0 0 1 2.53 6.41 13 13 0 0 1-.18 6.47L93.24 553a6.65 6.65 0 0 0 .39-3.65 9.59 9.59 0 0 0-1.31-3.52 9.3 9.3 0 0 0-2.64-2.83 8.89 8.89 0 0 0-3.34-1.43 9.6 9.6 0 0 0-3.7 0 11.11 11.11 0 0 0-3.74 1.51 11.32 11.32 0 0 0-3.08 2.71 9.52 9.52 0 0 0-1.68 3.29 8.68 8.68 0 0 0-.2 3.56 9.29 9.29 0 0 0 1.33 3.55 8.72 8.72 0 0 0 2.94 3 8 8 0 0 0 3.51 1.13l-1.5 7.36a15.26 15.26 0 0 1-6.15-2.43ZM115.32 592.6A18.28 18.28 0 0 1 109 596a16.16 16.16 0 0 1-6.59.6 16.49 16.49 0 0 1-6.29-2.13 19.89 19.89 0 0 1-5.45-4.7 19.62 19.62 0 0 1-3.51-6.25 16.54 16.54 0 0 1-.83-6.57 16 16 0 0 1 1.89-6.33 19.34 19.34 0 0 1 10.93-8.95 15.47 15.47 0 0 1 6.49-.53 16.5 16.5 0 0 1 6.19 2.19 20.53 20.53 0 0 1 5.4 4.71 20.22 20.22 0 0 1 3.56 6.24 16.42 16.42 0 0 1 .93 6.51 15.34 15.34 0 0 1-1.8 6.26 18 18 0 0 1-4.6 5.55Zm-5.32-6.52a11.11 11.11 0 0 0 2.63-3 9.5 9.5 0 0 0 1.22-3.47 8.62 8.62 0 0 0-.26-3.59 9.32 9.32 0 0 0-1.82-3.42 9.07 9.07 0 0 0-6.44-3.4 8.8 8.8 0 0 0-3.65.52 11.3 11.3 0 0 0-3.48 2 11.61 11.61 0 0 0-2.71 3.11 9.76 9.76 0 0 0-1.27 3.5 8.91 8.91 0 0 0 .23 3.59 9.22 9.22 0 0 0 8.27 6.79 9.44 9.44 0 0 0 3.7-.53 11.49 11.49 0 0 0 3.58-2.1ZM110.3 610.5l22.52-23.5 5.72 5.48L120.76 611l9.1 8.72-4.74 5ZM151.16 645.24l1.83-6.63-10.07-7.61-5.76 3.66-6.84-5.14 30.51-17.8 6.1 4.59-8.78 34.15Zm7.38-24.33-10 6.44 6.54 4.92ZM183.72 665.32l-1-25-.12-.07-10.25 18.67-6.66-3.74 15.92-28.4 7.83 4.38 1 24.93.12.06 10.23-18.62 6.66 3.73-15.92 28.41ZM224.66 683.62a29.56 29.56 0 0 1-6.77-1.81 20.4 20.4 0 0 1-6.25-3.79 16.51 16.51 0 0 1-4-5.32 15.75 15.75 0 0 1-1.48-6.38 19.15 19.15 0 0 1 5.17-13.12 15.63 15.63 0 0 1 5.46-3.66 16.44 16.44 0 0 1 6.47-1.15 20 20 0 0 1 6.91 1.42 21.39 21.39 0 0 1 6.25 3.71 14.87 14.87 0 0 1 3.86 4.9l-6.69 3.46a8.56 8.56 0 0 0-2-3.15 10.36 10.36 0 0 0-3.67-2.35 9.63 9.63 0 0 0-3.83-.69 9.25 9.25 0 0 0-3.6.87 9.57 9.57 0 0 0-3 2.27 11.43 11.43 0 0 0-2.15 3.53 13 13 0 0 0-.91 4.09 8.81 8.81 0 0 0 .6 3.71 8.6 8.6 0 0 0 2.14 3.11 11.09 11.09 0 0 0 3.68 2.26 16.39 16.39 0 0 0 2.52.77 9.88 9.88 0 0 0 2.39.21l2.16-5.52-5.78-2.27 2.31-5.91 12.51 4.9-6.29 16.06a25.15 25.15 0 0 1-6.01-.15ZM241.49 689.1l8.06-31.56 21.22 5.46-1.64 6.42-13.87-3.54-1.52 6 13.1 3.35-1.56 6.1-13.1-3.34-1.68 6.55 14.67 3.74-1.67 6.51ZM274.12 696.67l4.74-32.22 7.83 1.15L283 691l12.47 1.83-1 6.78ZM337.36 685.14a18.14 18.14 0 0 1-1.52 7 16 16 0 0 1-3.85 5.37 16.38 16.38 0 0 1-5.72 3.37 19.73 19.73 0 0 1-7.12 1.05 19.52 19.52 0 0 1-7-1.43 16.62 16.62 0 0 1-5.52-3.67 16 16 0 0 1-3.55-5.57 19.34 19.34 0 0 1 .37-14.12 15.55 15.55 0 0 1 3.85-5.25 16.55 16.55 0 0 1 5.7-3.26 20.16 20.16 0 0 1 7.09-1 20.43 20.43 0 0 1 7.05 1.38 16.63 16.63 0 0 1 5.54 3.55 15.52 15.52 0 0 1 3.56 5.46 18 18 0 0 1 1.12 7.12Zm-8.41-.22a11 11 0 0 0-.59-4 9.22 9.22 0 0 0-1.82-3.2 8.64 8.64 0 0 0-2.89-2.15 9.79 9.79 0 0 0-7.56-.2 8.89 8.89 0 0 0-3 2 8.8 8.8 0 0 0-2 3.1 11.22 11.22 0 0 0-.77 3.93 11.55 11.55 0 0 0 .58 4.09 9.55 9.55 0 0 0 1.82 3.25 8.78 8.78 0 0 0 2.86 2.17 9.3 9.3 0 0 0 3.75.86 9.41 9.41 0 0 0 3.8-.66 9 9 0 0 0 3-2 9.18 9.18 0 0 0 2-3.14 11.72 11.72 0 0 0 .87-4.05ZM466.84 667.64l-12-8.48-2.41 1.18 5.7 11.6-6.89 3.39-14.42-29.23 11.18-5.48a21 21 0 0 1 4.32-1.58 11.78 11.78 0 0 1 4.31-.3 8.65 8.65 0 0 1 3.88 1.47 9.45 9.45 0 0 1 3 3.75 8.69 8.69 0 0 1 .85 5.79 9.83 9.83 0 0 1-3 5.08l13.78 8.75Zm-10.26-20.13a3.22 3.22 0 0 0-1.25-1.46 3.38 3.38 0 0 0-1.61-.44 5.93 5.93 0 0 0-1.77.28 14.68 14.68 0 0 0-1.7.68l-3.77 1.86 3.35 6.81 3.36-1.65a11.68 11.68 0 0 0 1.71-1 6.37 6.37 0 0 0 1.4-1.33 3.33 3.33 0 0 0 .28-3.73ZM502.12 626.65a18 18 0 0 1 2.81 6.61 16.16 16.16 0 0 1 0 6.61 16.58 16.58 0 0 1-2.74 6 19.93 19.93 0 0 1-5.2 5 19.64 19.64 0 0 1-6.57 2.88 16.65 16.65 0 0 1-6.62.19 16 16 0 0 1-6.12-2.51 19.38 19.38 0 0 1-7.83-11.74 15.37 15.37 0 0 1 .11-6.52 16.28 16.28 0 0 1 2.78-5.94 20.15 20.15 0 0 1 5.21-4.92 20.36 20.36 0 0 1 6.56-2.93 16.47 16.47 0 0 1 6.57-.29 15.45 15.45 0 0 1 6.06 2.4 18 18 0 0 1 4.98 5.16Zm-7 4.67a10.86 10.86 0 0 0-2.77-2.91 9.38 9.38 0 0 0-3.33-1.57 8.89 8.89 0 0 0-3.6-.08 9.14 9.14 0 0 0-3.58 1.47 9 9 0 0 0-2.72 2.72 9.29 9.29 0 0 0-1.3 3.36A9 9 0 0 0 478 638a12.2 12.2 0 0 0 4.47 6.66 9.62 9.62 0 0 0 3.36 1.61 8.71 8.71 0 0 0 3.6.12 9.69 9.69 0 0 0 6.27-4.19 8.74 8.74 0 0 0 1.29-3.37 9.28 9.28 0 0 0-.17-3.73 11.37 11.37 0 0 0-1.7-3.78ZM532.53 609.45a8.86 8.86 0 0 1 2.16 4.07 8.4 8.4 0 0 1-.18 4.05 12.06 12.06 0 0 1-1.94 3.81 20.78 20.78 0 0 1-3.12 3.39l-9.75 8.56-21.49-24.47 9.79-8.56a20.17 20.17 0 0 1 3.16-2.26 11.38 11.38 0 0 1 3.58-1.36 7.53 7.53 0 0 1 3.65.18 7.63 7.63 0 0 1 3.46 2.41 6.76 6.76 0 0 1 1.86 4.34 8.25 8.25 0 0 1-1.22 4.47l.06.07a9.12 9.12 0 0 1 2.51-1.08 7.65 7.65 0 0 1 2.64-.2 7.51 7.51 0 0 1 2.56.75 7.83 7.83 0 0 1 2.27 1.83Zm-15.72-4.37a2.6 2.6 0 0 0-2.54-1A7.34 7.34 0 0 0 511 606l-3 2.55 4.44 5.05 3.18-2.8a5.75 5.75 0 0 0 2-2.93 3.08 3.08 0 0 0-.81-2.79Zm9.32 9a2.89 2.89 0 0 0-3-1.11 8.93 8.93 0 0 0-3.56 2.09L516.3 618l4.92 5.6 3.32-2.91a11.71 11.71 0 0 0 1.32-1.39 5.76 5.76 0 0 0 1-1.61 3.26 3.26 0 0 0-.7-3.55ZM545.85 609.19l-23.6-22.44 5.45-5.75 23.6 22.44ZM572.19 578.41l-24.87-2.71-.08.11 16.93 12.92-4.68 6-25.72-20 5.5-7.09 24.79 2.71.09-.11-16.9-12.88 4.68-6 25.73 20ZM572.48 533.92a7.2 7.2 0 0 0-3.12 1.22 7.41 7.41 0 0 0-2.26 2.32 9.6 9.6 0 0 0-.7 1.44 4.26 4.26 0 0 0-.29 1.51 3.64 3.64 0 0 0 .32 1.45 2.75 2.75 0 0 0 1.14 1.19 2.57 2.57 0 0 0 1.36.41 3.14 3.14 0 0 0 1.35-.38 9 9 0 0 0 1.46-1q.76-.61 1.68-1.41c.88-.76 1.82-1.54 2.81-2.34a13.19 13.19 0 0 1 3.19-1.9 9.53 9.53 0 0 1 3.6-.69 7.9 7.9 0 0 1 4 1.26 10.7 10.7 0 0 1 3.63 3.37 9.72 9.72 0 0 1 1.48 4.12 11.87 11.87 0 0 1-.35 4.45 16.42 16.42 0 0 1-1.83 4.32 19.17 19.17 0 0 1-4.51 5.19 14.45 14.45 0 0 1-5.77 2.88l-1.86-7.11a9.52 9.52 0 0 0 3.73-1.45 8.53 8.53 0 0 0 2.84-2.83 7.28 7.28 0 0 0 .71-1.56 4.06 4.06 0 0 0 .23-1.55 3 3 0 0 0-.44-1.41 3.47 3.47 0 0 0-1.23-1.17 2.67 2.67 0 0 0-1.58-.4 4.5 4.5 0 0 0-1.68.52 10.59 10.59 0 0 0-1.91 1.33c-.69.57-1.45 1.23-2.29 2a26.38 26.38 0 0 1-2.59 2 10 10 0 0 1-2.89 1.39 8.21 8.21 0 0 1-3.22.27 8.8 8.8 0 0 1-3.58-1.3 9.21 9.21 0 0 1-3.42-3.33 9.68 9.68 0 0 1-1.25-4.12 12.69 12.69 0 0 1 .52-4.41 18.29 18.29 0 0 1 1.84-4.2 16.85 16.85 0 0 1 3.75-4.32 14.56 14.56 0 0 1 5.15-2.79Z"/><g id="Space"><path class="cls-5" d="M327.5 651.2a255 255 0 1 1 180.31-74.69A253.34 253.34 0 0 1 327.5 651.2Z"/><path class="cls-3" d="M327.5 146.2c138.07 0 250 111.93 250 250s-111.93 250-250 250-250-111.93-250-250 111.93-250 250-250m0-10a259.15 259.15 0 1 0 101.21 20.43A258.42 258.42 0 0 0 327.5 136.2Z"/></g><g class="cls-6" id="Earth"><circle cx="196.92" cy="494.09" r="146.67" transform="rotate(-75 196.956 492.518)" style="fill:#a3be5f"/><path d="M346.62 478.75c-.26-2.52-.57-5-.95-7.51s-.83-4.94-1.32-7.38-1.06-4.86-1.69-7.26c-1.22-4.79-2.69-9.5-4.36-14.09-.43-1.14-.86-2.28-1.31-3.42q-2-5.11-4.39-10c-.52-1.09-1.07-2.18-1.62-3.25-1.1-2.16-2.26-4.29-3.46-6.38a150.1 150.1 0 0 0-12.12-17.95c-2.22-2.83-4.56-5.58-7-8.25-1.62-1.77-3.27-3.51-5-5.21s-3.43-3.35-5.2-5q-5.17-4.69-10.75-8.89A150.59 150.59 0 0 0 272.06 364c-2.09-1.2-4.22-2.36-6.37-3.46-1-.5-2-1-3-1.47-1.19-.57-2.39-1.14-3.6-1.69l-1.52-.67c-1.71-.75-3.44-1.49-5.19-2.17h-.09c-1.87-.72-3.76-1.41-5.65-2.08l-1.14-.46q-6.66-2.25-13.59-3.88c-1.44-.34-2.89-.66-4.35-1-1.06-.21-2.11-.41-3.17-.6a147.81 147.81 0 0 0-16.58-2.06c-2.54-.18-5.09-.29-7.67-.34h-2.75c-1.55 0-3.09 0-4.64.08a149.9 149.9 0 0 0-43.47 7.8c-2.32.79-4.62 1.63-6.88 2.53-.7.27-1.41.56-2.11.85-1.55.64-3.1 1.29-4.63 2-2.22 1-4.4 2.05-6.57 3.16s-4.27 2.26-6.36 3.46a151.59 151.59 0 0 0-23.64 16.82c-.85.75-1.71 1.51-2.55 2.28q-2.67 2.42-5.22 5c-1.69 1.69-3.36 3.43-5 5.2q-3.63 4-7 8.25A152.12 152.12 0 0 0 67.2 419.5q-1.82 3.13-3.46 6.38c-.56 1.08-1.09 2.16-1.62 3.25-1.58 3.29-3 6.62-4.39 10-.44 1.13-.88 2.27-1.29 3.42a142.12 142.12 0 0 0-4.39 14.09c-.61 2.39-1.17 4.82-1.66 7.26s-1 4.89-1.32 7.38-.71 5-1 7.51a153 153 0 0 0 0 30.66q.38 3.79 1 7.51t1.32 7.39c.49 2.44 1 4.86 1.66 7.25q1.86 7.2 4.39 14.1 1.24 3.44 2.69 6.81c.94 2.24 2 4.46 3 6.64.52 1.09 1.06 2.18 1.61 3.26 1.11 2.16 2.26 4.28 3.47 6.38a150.79 150.79 0 0 0 12.18 17.91q3.35 4.26 7 8.25 2.43 2.65 5 5.21t5.21 5a151.13 151.13 0 0 0 26.19 19.09c2.11 1.2 4.23 2.36 6.38 3.46q6.46 3.32 13.29 6c2.27.89 4.56 1.73 6.89 2.51a149.76 149.76 0 0 0 48.1 7.89q5.27 0 10.42-.36a151 151 0 0 0 37.7-7.52q3.43-1.23 6.83-2.53c4.53-1.8 9-3.8 13.29-6 2.14-1.1 4.28-2.26 6.37-3.46a150.74 150.74 0 0 0 26.2-19.1c1.77-1.61 3.52-3.27 5.2-5s3.36-3.43 5-5.21q3.63-4 7-8.25a145.55 145.55 0 0 0 9.78-14.05c.79-1.29 1.58-2.58 2.34-3.89 1.21-2.1 2.36-4.22 3.46-6.38.56-1.08 1.1-2.16 1.63-3.25 1.05-2.19 2.06-4.4 3-6.65s1.84-4.51 2.69-6.81c1.67-4.6 3.14-9.3 4.36-14.09.63-2.39 1.18-4.81 1.68-7.25s.94-4.9 1.32-7.39.7-5 1-7.5c.5-5.05.77-10.16.77-15.35s-.36-10.27-.87-15.32ZM230.71 632.11c-.13-1.42-.52-2.84-.58-4.24-.14-3 .33-5.22-.16-8-.39-2.14-.85-5.42-1.61-6.76-.87-1.5-4.26-4-6-5-1.13-.62-2.48-.84-3.7-1.44-2.63-1.28-7.71-4-8.87-6.59-.34-.76-.28-1.75-.64-2.58a10.7 10.7 0 0 0-1.37-2.2c-.63-.81-1.3-1.62-1.86-2.47-2-3-3.6-6.84-5.64-10a39.18 39.18 0 0 0-3.07-4.66c-.66-.75-2.79-1.46-3.06-2.58-.36-1.49-1.46-3.53-1.28-4.67.23-1.54 3.22-2.78 3.22-4.18 0-1.19-1.6-1.88-1.93-2.89-.81-2.47.48-3.91 1.45-6a22.29 22.29 0 0 1 1-2.25c.59-.89 1.79-1.14 2.57-2.09.44-.53.72-1.66 1.3-2.42 1.22-1.62 3.2-2.23 3.7-3.69a30.74 30.74 0 0 0 .16-9.17c-.28-1.16-1.36-2.12-1.77-3.22-.73-1.94-.9-4.07-2.91-4-1.24 0-2.11 1.38-2.9 2.25-.18 1.14-.08 2.38-1.28 2.73-1.85.54-2.54-1.92-4.69-2.57-.84-.26-2.19-.24-2.73-.49-1.56-.7-2.08-3-3.7-3.86-1.38-.73-2.56-.48-3.4-1.61-.34-.78-.06-2.18-.15-3.21-1.77-1-3.26-4.88-5.32-5.79-1.37-.61-3.45-.55-5.16-1.12a17.87 17.87 0 0 0-2.26-.81 14.19 14.19 0 0 1-2.89-.64c-3.19-1.58-4.92-6.71-8.87-6.6-1.69.05-3.3 1.62-4.84 1.61s-4.07-1.21-6-2.09-4.16-1.42-5.8-2.25c-1.31-.69-2.22-1.91-3.38-2.42-.88-.39-2.17-.45-2.89-.8A32.1 32.1 0 0 1 130 501c-1.22-.85-2.53-2.13-2.58-3.22-.06-1.26 1.16-2.34 1.3-3.54.41-3.83-2.42-6.59-4.19-8.85-1.33-1.68-2.88-3.11-4.2-4.66a10.67 10.67 0 0 0 0-2.26 32.49 32.49 0 0 1-2.9-3.86c-1-1.31-2.81-2.71-3-4.18-.31-1.81.68-3.4 0-5.15-1.15-2.9-5.2-1.59-4.68 2.25.14 1.06 1.64 2.49 2.1 3.54s.37 2.42.81 3.71 1.66 2.31 2.09 3.7c.68 2.2.66 4.57 1.28 5.95.56 1.22 2.6 2.38 1.45 3.86-1.52.31-2.11-1.2-3-2.09-.54-.49-2.45-1.43-2.74-2.58-.24-.94.59-2.22.32-3.38-.57-2.27-5.14-2.33-5.17-4.66 0-1.47 1.93-1.64 1.94-3.07s-2.12-2.85-2.58-4.17a24.45 24.45 0 0 1-.65-4.82c-.14-1.6 0-3.44-.32-4.67a7.54 7.54 0 0 0-3.07-3.22c-1.4-.78-2.53-.46-3.22-1.61a13.24 13.24 0 0 1-1.12-4.18c-.24-1.93-.06-4-.16-6.11a30.55 30.55 0 0 1 0-6.27c.79-1.56 2.24-2.33 3.06-3.86.57-1.08.65-2.4 1.29-3.54 1.17-2.11 3.75-4.05 5.48-6.13a28.66 28.66 0 0 0 4.68-6.91c.39-.9 1.44-2.91 1.27-4-.2-1.55-3.12-2.83-2.9-4.68.16-1.13 1.78-1.12 2.27-2.24a10.93 10.93 0 0 0 .47-2.9c0-1.55-.78-3.17-.47-4.82.26-1.42 2.37-2 1.28-3.54s-3 .82-4.19-.16.22-2 .32-3.7c0-.67-.39-1.44-.32-1.93.1-.73 1.5-1.94 1.13-2.42-.58-.74-1.22-2.22-2.13-3.41A141.43 141.43 0 0 1 172 354.39c.3.5.54 1.08 1.26 1.3 1.4-.73 2.81 0 4.35 0s2.86-.75 4.52-.49c2.93.46 7 3.33 9.35 1.77.58-.39.44-1.06 1-2.09.42-.82 1.07-1.72 1.48-2.72h3.5q5.26 0 10.42.37a140.9 140.9 0 0 1 17.85 2.47c-.39 1-1.66.56-2.71 1.05s-1.36 1.41-2.41 1.61c-2.94.55-5.37-.74-7.89-.65-.13 1.1 1.24 1.74 1.92 2.09 2.31 1.21 4.17 1 7.42 1 1.66 0 3.57.49 5-.49.91-.62.86-2 1.61-2.73a6 6 0 0 1 1.33-.92c1.6.38 3.18.79 4.76 1.21-.27 1.09-2 .83-2.05 2.28 1.12.68 3.74-.36 4.74-1.51l1.17.35c2.28.69 4.53 1.43 6.76 2.24q4.77 1.73 9.38 3.76a4.25 4.25 0 0 1-1.76.71c-1.34 0-1.9-1.79-3.4-1.12-.12 1.72 1.82 2.41 3.07 3.2s2.75 1.73 3.22 3.22c-1.31 2.79-3.41-.13-5.48-.15-2.28 0-5.62 4.34-7.58.81.49-1.88 2.56-2.17 3.07-4a6.79 6.79 0 0 0-1.31.39 24.35 24.35 0 0 0-2.3 1.13 12.57 12.57 0 0 1-3.32 1.38c-1.12.25-2.23.19-3.23.47-1.93.57-3.27 2-5.31 2.75-.79.29-1.75.2-2.58.48a42.18 42.18 0 0 0-6.28 2.9 36 36 0 0 0-5.65 3.38c-.69.59-2.48 2.7-2.4 3.37.07 1 1.88 1.27 1.93 2.26-.05.59-1.05 1.88-.33 2.73s2 .15 3.39.32c2.45.31 4.06 2.34 6 3.38a16.65 16.65 0 0 0 5.15 1.93c2.22.28 4.69-.64 5 1.13s-2.08 2.31-2.25 3.38c1.19 1.57-.82 2.32-.81 3.7a3.5 3.5 0 0 0 2.58 2.9c1.62.13 4-1.6 4.67-3.22.8-1.93.46-4.55 1.94-6 7.5.21 13.87-3.4 13.37-11.09a10.91 10.91 0 0 1-.31-2.58c.23-1.24 2.38-2.28 2.09-3.86a3.12 3.12 0 0 0 1.71-1.64c.61-1.09 1.1-2.35 2.23-2.76a1.12 1.12 0 0 1 .24-.1 4.16 4.16 0 0 1 2.07.19 11.83 11.83 0 0 0 4.21.93c.79-.05 1.8-.75 2.59-.64 1.57.23 2.52 2.16 3.7 3.05s2.16.55 2.42 1.62c-.31 1.79-1.55 1.85-1.45 3.49a3.46 3.46 0 0 0 2.42 2.74 7.77 7.77 0 0 0 4-1 20.17 20.17 0 0 0 3.52-2.79c1.58 1.21 3.15 2.45 4.66 3.72a15.57 15.57 0 0 1 .36 1.79c.22 1.75-.24 3.07-.16 4.68.2 2.72 3.62 2.43 5.31 3.85.51.44.7 1.54 1.13 2.1.82 1.08 1.81 1.08 1.94 2.25.31 2.77-2.52 3-2.26 6.11-.58 1.2-2 1.14-1.94 2.73.19 2.54 3.84.6 4.84 2.58.54 1.07-.09 1.86-.48 3.37 1.24 1.49 1.24 3.86-1 3.87-1.34 0-1.71-1.44-3.07-1.77-.76-.2-1.79-.15-2.75-.32s-1.79-.39-2.56-.49c-2-.23-4.15.35-5.33-.8a53.08 53.08 0 0 1 6.93-7.24c.73-.66 2.31-1.1 1.93-2.41-1.37-1.2-3.05.07-4.35.8s-3 1.86-4.51 2.09c-2.66.4-6.19-.77-8.38.64-.3 1.22 2.48.75 2.09 2.58a3.19 3.19 0 0 1-2.89-.48c-.75-.67-.33-1.69-.81-2.09-.83-.69-3.94-.88-5.32-.65-1.69.28-3.19 1.3-3.38 2.74 2 1 5.38-1 6.12 1.45-1.12 2-3.74 3.11-3.4 5.78a3.69 3.69 0 0 0 2.27 2.59c.89.14 1.39-.74 2.26-.65s.7 1.12 1.77 1c1.56-.66 2.4-2.83 4.19-2.73 2.13 2.58-1.93 3.84-4.19 4.66-2.58.93-5.94 1.43-7.9 2.25-1 .43-4.94 4.2-5.49 1.29-.39-2.1 1.94-1.49 2.42-3.22-2.49-.49-4.82 1.07-7.08 1.94-3.25 1.22-8.73 2-9.52 5.63-.14.73.33 2.08-.15 2.57s-2.7.46-3.71.8c-1.55.53-2.91 1.67-3.88 1.93-.71.2-1.79.14-2.24.33-1.28.49-1.75 2.22-3.23 3.38-.6.46-1.94.8-2.42 1.28-.83.83-.94 2.9-2.41 3.22-.93.08-1.69-.7-2.58-.16-.11 2.05.73 4.84-.17 6.91a44.58 44.58 0 0 1-6.43 4c-1.36.76-2.56 1-4.2 1.76-1.16.58-2.21 2-3.54 2.74-.77.45-1.57.92-2.34 1.44-2.35 1.58-4.46 3.64-4.43 7.09 0 1 .52 2.05.65 3.22.07.68-.09 1.35 0 2.09.19 1.68 1.4 3.82 0 5-2.18-.88-4.93-1.19-6.45-2.73-.43-1.59.83-2.9.65-4.34-.17-1.16-1.81-3.23-2.75-3.38s-1.89.89-2.9.8c-1.21-.09-2.33-1.75-3.88-1.93-2.25-.26-3.94.52-6.44.17-2.42 1.3-3.14 3.6-6.12 3.37-1-.07-2-.88-3.22-1.12a19.48 19.48 0 0 0-4.68-.64c-2.75.18-4.72 2.15-7.09 3.37-2.08 1.09-5 2.43-5.64 4.67-.33 1.21-.06 2.91-.49 4a20.52 20.52 0 0 1-1.28 2.09c-1.81 3.29-3.32 7.65-1.93 12.39a28.1 28.1 0 0 0 2.73 5.46 8.85 8.85 0 0 0 4.67 2.26 20.84 20.84 0 0 0 3.71-.81 34 34 0 0 0 4.19-.64c3.48-1.11 2.79-5.81 6.28-7.4 1.53-.69 3.29-.83 6-1a3.57 3.57 0 0 1 1.12 3.05c-.09.83-.87 1.56-1.28 2.73s-.45 2.24-.8 3.07c-.49 1.08-1.56 1.87-1.94 2.89-.25.66-.12 1.48-.32 2.09-.38 1.06-1.79 1.81-1.13 2.89 3.45 1.37 7.63-.39 10.64.17 1.26.24 3.89 1.74 3.86 3.7 0 1.46-1.13 2.42-1.29 4-.2 2-1 4.48-1.13 6.11-.15 2.68 3.92 7.28 6.78 7.24 3 0 4.84-3 8.53-1.44 1.23.53 2.52 2.51 3.87 2.41a3 3 0 0 0 1.53-.85 10.35 10.35 0 0 0 2-2.53c.93-1.64 1-3 2.59-3.85s3.11-.47 5.31-1.3a12.89 12.89 0 0 0 2.75-1.6c.78-.54 1.61-1.95 2.58-1 1.28 1.29-1.58 2-.49 3.39 2.24 1.18 3.38-2.2 5-2.26a11.51 11.51 0 0 1 3.2 1.62c1.26.82 1.7 2 3.07 2.24.88.18 2.3-.34 3.54-.16 1.65.24 2.62 1.65 3.88 1.61 1.52 0 2.24-1.69 3.55-1.93 2.83-.52 3.9.32 5.15 2.09 1.4.24 1.46-1.62 2.73-1-.7 1.41.26 2 .81 3.22.36.75.31 1.29.65 1.61.77.73 2.26.73 3.38 1.44s1.85 2.14 3.23 3.7 3.76 3.26 5.63 3.37 3.22-.49 4.68-.32c3.33.41 5.4 2.08 7.74 3.87 1.3 1 2.48 1.7 2.89 2.89.3.84.16 2 .48 2.9.72 2 3.65 3 2.58 6.43.49 1 1.58 1.38 2.75 2.1.94.56 1.72 1.76 2.73 1.93a18.21 18.21 0 0 0 1.94-.17 15.22 15.22 0 0 1 4.68 1.46 18.93 18.93 0 0 1 2.9 1c.82.56.92 2.4 1.94 2.9.65.32 2.12-.13 3.22 0 1.73.19 4.07 1.26 5.64 1.28.94 0 1.73-.38 2.57-.32 2 .15 3.51 1.38 5 2.76a142.48 142.48 0 0 1-87.36 63.57Z" style="fill:#3e7493"/></g><g id="Trajectory"><circle class="cls-3" cx="229.5" cy="438.13" r="5"/><path d="M173.71 497.15a49.05 49.05 0 0 1 2.87-24c7.75-19.86 28-32.3 52.92-35.36" style="stroke:#f2f2f2;stroke-miterlimit:10;stroke-width:5px;fill:none"/><circle class="cls-3" cx="173.98" cy="495.93" r="5"/></g><g class="cls-6" id="Mars"><path class="cls-10" d="M308.57 226.09a35 35 0 1 1-12.18-48 35 35 0 0 1 12.18 48Z"/><path class="cls-11" d="M308.57 226.09a35 35 0 1 1-12.18-48 35 35 0 0 1 12.18 48Zm-34.82 15.46a11.73 11.73 0 0 0 4.74-1.92c7.33-5 9.43-3.43 13.45-1.95a8.84 8.84 0 0 0 1.91.51 33.77 33.77 0 0 0 3.77-2.25l.43-.8c1.18-2.24 1.17-3.11 3.22-3.14a2.31 2.31 0 0 0 1.55-.48 1.36 1.36 0 0 0 .12-.12c.44-.57.4-1.51-.35-2.88-1.31-2.36 1.89-6 5.38-8.78a14.12 14.12 0 0 0 3.59-5.09c2.63-13.56-3.65-28.42-15.86-35.39a27 27 0 0 0-14.18-3.16c-3.9.28-9.3 2.54-7.31 6.21 2.51 4.62 10.52-1.42 7 6.41-2.93 6.62-5.85 3.12-8.44 5.57s-4.42 8-1.53 10.94c3 3.13 6.48 3.17 9.62.82 3.25 4.42 15.35 19.49 13.19 21.93-3.59 4-29.25-15.09-34.07-18.87-4.48-3.51-9.83.16-9.48 5.49 1.33 14.03 9.21 23.82 23.25 26.95Z"/><path class="cls-11" d="M278.19 198.11c2.71 1.61 3.85 4.69 2.55 6.87s-4.54 2.64-7.25 1-3.86-4.68-2.56-6.86 4.54-2.62 7.26-1.01ZM307.12 197c1.24 1.69 1.73 3.63 1 4s-2.19-.25-3.83-2.69-1.21-3.17-.65-3.48 2.5.8 3.48 2.17ZM263.12 224.08c.71.77 1 1.71.37 2.19s-1.44.1-2.05-.6a1.54 1.54 0 0 1-.15-2c.39-.43 1.2-.27 1.83.41ZM270.84 219.85a2.69 2.69 0 0 1-.35 3.82 2.83 2.83 0 0 1-3.58-1.22 2.17 2.17 0 0 1 .45-3.16 2.65 2.65 0 0 1 3.48.56ZM257 219.65c.6 1 .35 2.25-.18 2.46s-1.76-.6-2.07-1.54-.21-1.74.36-2 1.42.3 1.89 1.08ZM259.09 218.08a1.66 1.66 0 0 0 1.65 1 1.43 1.43 0 0 0 .54-2.07c-.54-1-1.33-1.13-1.78-.89a1.66 1.66 0 0 0-.41 1.96ZM273.23 231.47a1.2 1.2 0 0 1 .95 1.41 1.86 1.86 0 0 1-2 .27c-.9-.34-1.06-1.06-.89-1.44s1.06-.51 1.94-.24ZM278.36 178.87c-.68.19-1.45.4-1.24 1a1.81 1.81 0 0 0 1.77.6c.76-.15 1.46-.62 1.2-1.07a1.92 1.92 0 0 0-1.73-.53ZM297.2 186.73c.37.55.47 1.2 0 1.34s-1.09-.08-1.57-.82-.43-1.27 0-1.37a2 2 0 0 1 1.57.85ZM294.69 195c.62.94.43 2.27-.56 2.51a1.92 1.92 0 0 1-2.2-1.06 1.72 1.72 0 0 1 .48-2.28 1.9 1.9 0 0 1 2.28.83ZM286.31 190.9a1.23 1.23 0 0 1 .45 1.7c-.43.61-1.53.31-1.84 0a1.22 1.22 0 0 1-.29-1.51c.37-.63 1.21-.47 1.68-.19ZM302.82 211.79c-.25.89-1 1.5-1.6 1.27a1.93 1.93 0 0 1-.76-2.11c.18-.88.69-1.81 1.48-1.44a2 2 0 0 1 .88 2.28Z"/><path class="cls-3" d="M304.37 190.3c-1.43 2.41-7.34 1.55-13.18-1.93s-9.42-8.25-8-10.66 7.34-1.56 13.18 1.92 9.44 8.25 8 10.67Z"/></g><g class="cls-6" id="Flames"><path class="cls-3" d="M384.84 657.81c13.08-53.93 22.63-120.91 28.42-199.42 3.19-43.24 4.47-80.16 5-103.24h38.66c.51 23 1.79 59.9 5 103.24 5.79 78.51 15.35 145.49 28.43 199.42Z"/><path d="M445.21 367.15c.66 23.08 2 55.29 4.72 92.12 5.32 72.13 13.81 134.7 25.29 186.54h-75.29c11.49-51.84 20-114.4 25.3-186.54 2.71-36.78 4-69 4.72-92.12h15.26m23.48-24h-62.22c-.29 19.69-1.34 62.45-5.17 114.35-6.3 85.37-17 156.68-31.9 212.31h136.36c-14.88-55.63-25.6-126.94-31.9-212.31-3.83-51.89-4.88-94.64-5.17-114.35Z" style="fill:#e8c04f"/><path class="cls-10" d="M458.89 354.81c1.17 54.5 6.78 193 33.48 303.33H382.79c26.7-110.29 32.3-248.83 33.48-303.33h42.62m19.69-23.33h-82c0 3.27-.32 213.37-41 350h164c-40.68-136.59-41-346.69-41-350Z"/></g><g id="Stars"><path class="cls-3" d="M513.5 327.22s14.5 2.16 14.5 25c0-22.82 14.5-25 14.5-25v-.05S528 325 528 302.2c0 22.81-14.4 25-14.4 25ZM275.5 300.21s8.5 1.3 8.5 15c0-13.69 8.5-15 8.5-15s-8.5-1.3-8.5-15c0 13.68-8.54 15-8.54 15ZM336.5 597.21s8.5 1.3 8.5 15c0-13.69 8.5-15 8.5-15s-8.5-1.3-8.5-15c0 13.68-8.54 15-8.54 15ZM165.5 302.21s8.5 1.3 8.5 15c0-13.69 8.5-15 8.5-15s-8.5-1.3-8.5-15c0 13.68-8.54 15-8.54 15ZM333.49 263.21s5.5.86 5.5 10c0-9.13 5.51-10 5.51-10s-5.51-.87-5.51-10c0 9.12-5.61 10-5.61 10ZM353.49 420.21s5.5.86 5.5 10c0-9.13 5.51-10 5.51-10s-5.51-.87-5.51-10c0 9.12-5.61 10-5.61 10ZM336.5 177.21s8.5 1.3 8.5 15c0-13.69 8.5-15 8.5-15s-8.5-1.3-8.5-15c0 13.68-8.54 15-8.54 15ZM116.49 329.21s5.5.86 5.5 10c0-9.13 5.51-10 5.51-10s-5.51-.87-5.51-10c0 9.12-5.61 10-5.61 10ZM324.5 345.22s14.5 2.16 14.5 25c0-22.82 14.5-25 14.5-25v-.05S339 343 339 320.2c0 22.81-14.4 25-14.4 25ZM227.49 287.21s5.5.86 5.5 10c0-9.13 5.51-10 5.51-10s-5.51-.87-5.51-10c0 9.12-5.61 10-5.61 10ZM364.49 499.21s5.5.86 5.5 10c0-9.13 5.51-10 5.51-10s-5.51-.87-5.51-10c0 9.12-5.61 10-5.61 10ZM157.49 253.21s5.5.86 5.5 10c0-9.13 5.51-10 5.51-10s-5.51-.87-5.51-10c0 9.12-5.61 10-5.61 10ZM198.49 233.21s5.5.86 5.5 10c0-9.13 5.51-10 5.51-10s-5.51-.87-5.51-10c0 9.12-5.61 10-5.61 10ZM522.5 405.21s8.5 1.3 8.5 15c0-13.69 8.5-15 8.5-15s-8.5-1.3-8.5-15c0 13.68-8.54 15-8.54 15ZM508.49 472.21s5.5.86 5.5 10c0-9.13 5.51-10 5.51-10s-5.51-.87-5.51-10c0 9.12-5.61 10-5.61 10Z"/></g><g id="Beer_Bottle" data-name="Beer Bottle"><path class="cls-5" d="M474.05 152.18C484.87 164 486 177 486.51 183.91c.09 1.16.17 2.2.31 3.07.6 4.58.12 88.19-.39 157.52l-.05 4.5c-.13 10.21-7.14 17-12 18.57-1.9.6-19.3.91-36.74.91s-34.88-.31-36.78-.91c-4.94-1.56-11.91-8.36-12.08-18.57 0-1.51-1.25-155.75-.39-162 .13-.86.17-1.9.31-3.07.56-6.92 1.64-19.86 12.42-31.72-.03-.03 38.47-4.37 72.93-.03Zm-80.34-6.76c-13 14.37-14.39 30-15 37.54-.06.53-.1 1-.14 1.54s-.07.82-.1 1v.13c-.24 1.74-.88 6.37.26 158.71V349.19a31.3 31.3 0 0 0 6.27 18.35 26.88 26.88 0 0 0 12.8 9.57c1.5.47 4.32 1.37 39.8 1.37s38.25-.9 39.77-1.38a27 27 0 0 0 12.77-9.56 31.17 31.17 0 0 0 6.23-18.41l.05-4.53c1.14-152.54.53-157.17.3-158.92V185.47c-.09-.56-.16-1.62-.22-2.31v-.06c-.61-7.54-1.88-23.23-15-37.66Z"/><path d="M437.61 366.48c-23 0-35.91-.39-38.3-1.15-7.39-2.33-15.36-11.27-15.56-23.24v-4.81c-.76-100.84-.86-154-.31-158 .07-.46.1-.9.14-1.38s.08-1 .14-1.48c.57-7 1.78-21.5 13.69-34.61 5.47-6 6.34-23.16 6.71-30.5v-.15c.31-5.7 2.27-27.08 4.08-46.68l.31-3.37c1-10.67 2-21.67 2.34-26.14a19.84 19.84 0 0 1-1.51-11.63c.74-4.77 2.8-13.21 8.34-16.07C421.29 5.39 426.86 5 434.11 5H441c7.48 0 12.85.39 16.51 2.29 5.1 2.61 7.32 10.17 8.28 16A19.45 19.45 0 0 1 464.31 35c.39 4.66 1.51 16.89 2.69 29.44l1 10.88c1.46 16 2.84 31.18 3.06 35.84.34 6.72 1.24 24.62 6.7 30.62 12 13.16 13.19 27.69 13.76 34.68.07 1.05.15 2 .26 2.72v.11c.53 4 .41 57.23-.34 158.21l-.05 4.51c-.15 12-8.11 20.92-15.51 23.28-2.39.76-15.26 1.15-38.26 1.15Z" style="fill:#726c50"/><path class="cls-3" d="M441 10c5.67 0 11.29.21 14.19 1.73 4.16 2.12 5.61 12.16 5.68 12.5a13.78 13.78 0 0 1-1.69 9.69c.21 2.9 1.51 17.18 2.81 31 1.73 19.17 3.76 40.9 4 46.48.43 8.57 1.34 26.44 8 33.75C484.87 157 486 170 486.51 176.91c.09 1.16.17 2.2.31 3.07.6 4.58.12 88.19-.39 157.52l-.05 4.5c-.13 10.21-7.14 17-12 18.57-1.9.6-19.3.91-36.74.91s-34.88-.31-36.78-.91c-4.94-1.56-11.91-8.36-12.08-18.57 0-1.51-1.25-155.75-.39-162 .13-.86.17-1.9.31-3.07.56-6.92 1.64-19.86 12.42-31.72 6.7-7.32 7.57-25.19 8-33.75.3-5.59 2.29-27.31 4.07-46.48 1.25-13.72 2.55-27.83 2.77-31.08a14.25 14.25 0 0 1-1.67-9.71c.05-.35 1.5-10.27 5.69-12.43 2.9-1.51 8.5-1.73 14.16-1.73H441m0-10h-6.88c-8.25 0-14.25.48-18.82 2.86-7.08 3.65-9.87 12.74-10.95 19.72a25.31 25.31 0 0 0 1.37 13.21c-.42 5-1.34 15.06-2.24 24.87L403.2 64c-1.82 19.63-3.78 41.07-4.1 46.84v.18a136.9 136.9 0 0 1-1.53 16.11c-1.4 8.06-3.3 10.65-3.86 11.25-13 14.37-14.39 30-15 37.54-.06.53-.1 1-.14 1.54s-.07.82-.1 1v.13c-.24 1.74-.88 6.37.26 158.71V342.15a31.3 31.3 0 0 0 6.27 18.39 26.88 26.88 0 0 0 12.8 9.57c1.5.47 4.32 1.37 39.8 1.37s38.25-.9 39.77-1.38a27 27 0 0 0 12.77-9.56 31.17 31.17 0 0 0 6.23-18.41l.05-4.53c1.14-152.54.53-157.17.3-158.92V178.47c-.09-.56-.16-1.62-.22-2.31v-.06c-.61-7.54-1.88-23.23-15-37.66-.55-.6-2.47-3.21-3.88-11.36a138.61 138.61 0 0 1-1.62-16.16c-.22-4.72-1.6-19.92-3.07-36-.33-3.63-.66-7.29-1-10.86-1.09-11.57-2.12-22.84-2.58-28.17a24.42 24.42 0 0 0 1.35-13.36c-1.67-10.19-5.35-16.8-10.94-19.68C455.25.48 449.24 0 441 0Z"/><path d="M437.52 304.76a61.71 61.71 0 0 1-35.4-10.94l-7.26-.42-5.65-.33-5.79-.25-.09-16.49c-.13-22.77-.27-46.33-.27-64.68v-5.3l10.87.65 8.1.48a62.74 62.74 0 0 1 71 0l7.88-.47 11.2-.66v5.3c0 17.15-.11 42.13-.33 76.37v4.61l-6.3.48-2.62.15c-3.39.2-6.67.39-9.87.56a61.49 61.49 0 0 1-35.41 10.94Z" style="fill:#b2afa1"/><path class="cls-3" d="M437.52 201.48a56.87 56.87 0 0 1 33.34 10.61l.71.47h.8v-1.77l.1 1.72c4.65-.26 9.48-.56 14.61-.86 0 16.06-.1 40.21-.33 76.34l-1.71.13c-4.5.26-8.81.52-13 .74h-.76l-.62.43a57.71 57.71 0 0 1-66.3 0l-.56-.43h-.76c-4.32-.22-8.87-.52-13.57-.78l-1.09-.05c-.14-25.45-.33-54.79-.33-76.38 5.07.3 10 .61 14.51.87l.14-1.86v1.9h.85l.62-.48a56.51 56.51 0 0 1 33.34-10.6m0-10a66.61 66.61 0 0 0-36.9 10.91l-6.38-.38-5.59-.34-10.58-.67v10.61c0 18.37.14 41.93.27 64.71l.06 11.73.06 9.51 9.5.42 1 .05 5.58.32c2 .12 4 .24 5.89.34a67.82 67.82 0 0 0 74.13 0l8.5-.49 2.53-.15h.18l1.71-.13 9.18-.7.06-9.21c.22-34.24.33-59.23.33-76.4v-10.6l-10.59.62-5.92.35-6.16.37a67.29 67.29 0 0 0-36.89-10.91Z"/></g></g></g></g></svg>