<?xml version="1.0" standalone="no"?>
<!DOCTYPE svg PUBLIC "-//W3C//DTD SVG 20010904//EN"
 "http://www.w3.org/TR/2001/REC-SVG-20010904/DTD/svg10.dtd">
<svg version="1.0" xmlns="http://www.w3.org/2000/svg"
 width="260.000000pt" height="260.000000pt" viewBox="0 0 260.000000 260.000000"
 preserveAspectRatio="xMidYMid meet">
<metadata>
Created by potrace 1.14, written by Peter Selinger 2001-2017
</metadata>
<g transform="translate(0.000000,260.000000) scale(0.100000,-0.100000)"
fill="#000000" stroke="none">
<path d="M1790 2145 c-7 -16 -34 -88 -60 -158 -26 -71 -50 -131 -53 -133 -8
-8 -291 -114 -304 -114 -31 0 -8 -19 45 -38 31 -11 89 -32 127 -47 39 -15 84
-32 102 -37 29 -10 35 -20 90 -169 32 -88 61 -159 64 -159 3 0 28 60 54 133
72 197 51 175 229 241 86 32 154 62 151 66 -2 4 -26 15 -52 24 -26 10 -84 31
-128 48 -44 16 -92 34 -107 40 -18 7 -31 22 -39 47 -7 20 -34 92 -60 161 -47
122 -48 124 -59 95z"/>
<path d="M1141 2105 c-136 -30 -237 -74 -331 -144 -233 -174 -354 -421 -344
-706 4 -131 17 -191 65 -306 55 -131 178 -280 293 -357 27 -17 43 -33 35 -33
-8 -1 -18 -2 -24 -4 -5 -1 -15 -3 -22 -3 -23 -3 -62 -52 -68 -85 -3 -17 -6
-54 -7 -82 l-3 -49 -81 -2 c-88 -1 -135 -18 -180 -62 -47 -48 -64 -95 -67
-185 l-2 -82 893 -3 c710 -2 892 0 893 10 10 165 -25 248 -126 300 -29 15 -60
21 -122 22 l-83 1 -1 30 c-1 91 -6 123 -23 147 -19 28 -77 54 -101 44 -27 -10
-16 1 38 36 147 98 261 251 321 429 30 89 40 155 40 259 0 125 -27 269 -49
262 -73 -21 -71 -18 -124 -166 -28 -78 -53 -161 -57 -186 -40 -300 -331 -536
-638 -517 -450 27 -715 508 -500 908 40 74 165 197 239 236 130 67 231 87 369
71 50 -5 71 -2 130 19 39 14 75 30 80 34 14 12 46 101 41 110 -6 9 -116 46
-165 54 -75 14 -256 13 -319 0z"/>
<path d="M1010 1513 c0 -3 23 -56 51 -119 l51 -112 -51 -113 c-28 -62 -49
-114 -47 -116 2 -2 54 18 115 46 63 28 120 47 129 44 9 -3 59 -25 110 -49 51
-24 97 -44 102 -44 5 0 -13 50 -40 111 -28 61 -50 117 -50 123 0 7 22 61 50
121 27 60 48 111 46 112 -2 2 -16 -3 -32 -12 -45 -24 -179 -83 -195 -86 -8 -1
-34 7 -59 18 -152 70 -180 82 -180 76z"/>
</g>
</svg>
