<?xml version="1.0" encoding="utf-8"?>
<!-- Generator: Adobe Illustrator 27.5.0, SVG Export Plug-In . SVG Version: 6.00 Build 0)  -->
<svg version="1.1" xmlns="http://www.w3.org/2000/svg" xmlns:xlink="http://www.w3.org/1999/xlink" x="0px" y="0px"
	 viewBox="0 0 24 24" style="enable-background:new 0 0 24 24;" xml:space="preserve">
<style type="text/css">
	.st0{fill:#020617;}
	.st1{display:none;}
	.st2{display:inline;fill:#020617;}
	.st3{fill:#73A6C4;}
	.st4{fill:#FFFFFF;}
</style>
<g id="square_x5F_wallpaper">
	<rect class="st0" width="24" height="24"/>
</g>
<g id="round_x5F_wallpaper" class="st1">
	<circle class="st2" cx="12" cy="12" r="12.2"/>
</g>
<g id="mdi-crystal-ball">
	<g id="XMLID_00000182486930204726877140000012469653785872612740_">
		<g>
			<polygon class="st3" points="20.7,8 18.9,8.7 17.7,9.2 16.6,12.2 15.5,9.2 12.5,8 15.5,6.9 16.1,5.5 16.6,3.9 17.7,6.9 			"/>
			<path class="st4" d="M20.2,23v1H3.8v-1c0-1.1,0.9-2.1,2.1-2.1h1v-1c0-0.6,0.5-1,1-1h0.3c-2.3-1.3-3.9-3.8-3.9-6.7
				c0-4.3,3.5-7.7,7.7-7.7c1.1,0,2.1,0.2,3,0.6l-0.4,1l-1.5,0.5c-0.4-0.1-0.8-0.1-1.2-0.1c-3.1,0-5.7,2.5-5.7,5.7s2.5,5.7,5.7,5.7
				c3,0,5.5-2.3,5.7-5.3l0.9-2.5l0.7-0.3c0.3,0.8,0.4,1.6,0.4,2.4c0,2.9-1.5,5.4-3.9,6.7h0.3c0.6,0,1,0.5,1,1v1h1
				C19.3,20.9,20.2,21.8,20.2,23z"/>
			<polygon class="st3" points="13.7,10 12.7,12.2 13.7,14.3 11.5,13.4 9.3,14.3 10.3,12.2 9.3,10 11.5,11 			"/>
		</g>
		<g>
		</g>
	</g>
</g>
</svg>
