<?xml version="1.0" encoding="utf-8"?>
<!-- Generator: Adobe Illustrator 27.5.0, SVG Export Plug-In . SVG Version: 6.00 Build 0)  -->
<svg version="1.1" id="mdi-crystal-ball" xmlns="http://www.w3.org/2000/svg" xmlns:xlink="http://www.w3.org/1999/xlink" x="0px"
	 y="0px" viewBox="0 0 24 24" style="enable-background:new 0 0 24 24;" xml:space="preserve">
<style type="text/css">
	.st0{fill:#73A6C4;}
	.st1{fill:#FFFFFF;}
</style>
<g id="XMLID_00000182486930204726877140000012469653785872612740_">
	<g>
		<polygon class="st0" points="20.5,6.5 18.8,7.2 17.6,7.6 16.5,10.5 15.4,7.6 12.5,6.5 15.4,5.4 15.9,4 16.5,2.5 17.6,5.4 		"/>
		<polygon class="st0" points="10.3,10.5 9.4,8.4 11.5,9.3 13.6,8.4 12.7,10.5 13.6,12.6 11.5,11.7 9.4,12.6 		"/>
		<path class="st1" d="M12,5c-3,0-5.5,2.5-5.5,5.5S9,16,12,16c2.9,0,5.3-2.3,5.5-5.1l0.9-2.5l0.7-0.3c0.2,0.7,0.4,1.5,0.4,2.4
			c0,2.8-1.5,5.2-3.8,6.5H16c0.5,0,1,0.5,1,1v1h1c1.1,0,2,0.9,2,2v1H4v-1c0-1.1,0.9-2,2-2h1v-1c0-0.5,0.4-1,1-1h0.3
			c-2.3-1.3-3.8-3.7-3.8-6.5C4.5,6.4,7.9,3,12,3c1.1,0,2.1,0.2,3,0.6l-0.4,1l-1.4,0.5C12.8,5,12.4,5,12,5z"/>
	</g>
	<g>
	</g>
</g>
</svg>
